<?xml version="1.0" encoding="UTF-8"?>
<svg xmlns="http://www.w3.org/2000/svg" viewBox="0 0 1560 690" width="1560" height="690">
  <!-- CANEA Logo Recreation -->
  
  <!-- Letter C -->
  <path fill="#CC1529" d="
    M 248,25
    C 108,25 4,140 4,275
    C 4,410 108,525 248,525
    L 248,455
    C 150,455 76,378 76,275
    C 76,172 150,95 248,95
    Z
  "/>

  <!-- Letter A (first) -->
  <polygon fill="#CC1529" points="
    268,525
    393,25
    447,25
    572,525
    500,525
    420,118
    340,525
  "/>
  <rect fill="#CC1529" x="348" y="328" width="144" height="62"/>

  <!-- Letter N -->
  <polygon fill="#CC1529" points="
    588,525
    588,25
    660,25
    856,410
    856,25
    924,25
    924,525
    856,525
    660,140
    660,525
  "/>

  <!-- Letter E -->
  <path fill="#CC1529" d="
    M 968,25 L 1180,25 L 1180,93 L 1040,93 L 1040,240 L 1160,240 L 1160,308 L 1040,308 L 1040,457 L 1180,457 L 1180,525 L 968,525 Z
  "/>

  <!-- Letter A (second) -->
  <polygon fill="#CC1529" points="
    1155,525
    1280,25
    1334,25
    1459,525
    1387,525
    1307,118
    1227,525
  "/>
  <rect fill="#CC1529" x="1235" y="328" width="144" height="62"/>

  <!-- Red horizontal bar -->
  <rect fill="#CC1529" x="4" y="555" width="1455" height="80"/>

  <!-- Navy blue horizontal bar -->
  <rect fill="#0B1D5E" x="4" y="660" width="1455" height="50"/>

</svg>